<svg version="1.1" xmlns="http://www.w3.org/2000/svg" xmlns:xlink="http://www.w3.org/1999/xlink" width="916" height="684"><defs/><g><text fill="#eeeeee" stroke="none" font-family="Arial" font-size="24px" font-style="normal" font-weight="normal" text-decoration="none" x="0" y="0">UNREGISTERED</text><text fill="#eeeeee" stroke="none" font-family="Arial" font-size="24px" font-style="normal" font-weight="normal" text-decoration="none" x="0" y="30">UNREGISTERED</text><text fill="#eeeeee" stroke="none" font-family="Arial" font-size="24px" font-style="normal" font-weight="normal" text-decoration="none" x="0" y="60">UNREGISTERED</text><text fill="#eeeeee" stroke="none" font-family="Arial" font-size="24px" font-style="normal" font-weight="normal" text-decoration="none" x="0" y="90">UNREGISTERED</text><text fill="#eeeeee" stroke="none" font-family="Arial" font-size="24px" font-style="normal" font-weight="normal" text-decoration="none" x="0" y="120">UNREGISTERED</text><text fill="#eeeeee" stroke="none" font-family="Arial" font-size="24px" font-style="normal" font-weight="normal" text-decoration="none" x="0" y="150">UNREGISTERED</text><text fill="#eeeeee" stroke="none" font-family="Arial" font-size="24px" font-style="normal" font-weight="normal" text-decoration="none" x="0" y="180">UNREGISTERED</text><text fill="#eeeeee" stroke="none" font-family="Arial" font-size="24px" font-style="normal" font-weight="normal" text-decoration="none" x="0" y="210">UNREGISTERED</text><text fill="#eeeeee" stroke="none" font-family="Arial" font-size="24px" font-style="normal" font-weight="normal" text-decoration="none" x="0" y="240">UNREGISTERED</text><text fill="#eeeeee" stroke="none" font-family="Arial" font-size="24px" font-style="normal" font-weight="normal" text-decoration="none" x="0" y="270">UNREGISTERED</text><text fill="#eeeeee" stroke="none" font-family="Arial" font-size="24px" font-style="normal" font-weight="normal" text-decoration="none" x="0" y="300">UNREGISTERED</text><text fill="#eeeeee" stroke="none" font-family="Arial" font-size="24px" font-style="normal" font-weight="normal" text-decoration="none" x="0" y="330">UNREGISTERED</text><text fill="#eeeeee" stroke="none" font-family="Arial" font-size="24px" font-style="normal" font-weight="normal" text-decoration="none" x="0" y="360">UNREGISTERED</text><text fill="#eeeeee" stroke="none" font-family="Arial" font-size="24px" font-style="normal" font-weight="normal" text-decoration="none" x="0" y="390">UNREGISTERED</text><text fill="#eeeeee" stroke="none" font-family="Arial" font-size="24px" font-style="normal" font-weight="normal" text-decoration="none" x="0" y="420">UNREGISTERED</text><text fill="#eeeeee" stroke="none" font-family="Arial" font-size="24px" font-style="normal" font-weight="normal" text-decoration="none" x="0" y="450">UNREGISTERED</text><text fill="#eeeeee" stroke="none" font-family="Arial" font-size="24px" font-style="normal" font-weight="normal" text-decoration="none" x="0" y="480">UNREGISTERED</text><text fill="#eeeeee" stroke="none" font-family="Arial" font-size="24px" font-style="normal" font-weight="normal" text-decoration="none" x="0" y="510">UNREGISTERED</text><text fill="#eeeeee" stroke="none" font-family="Arial" font-size="24px" font-style="normal" font-weight="normal" text-decoration="none" x="0" y="540">UNREGISTERED</text><text fill="#eeeeee" stroke="none" font-family="Arial" font-size="24px" font-style="normal" font-weight="normal" text-decoration="none" x="0" y="570">UNREGISTERED</text><text fill="#eeeeee" stroke="none" font-family="Arial" font-size="24px" font-style="normal" font-weight="normal" text-decoration="none" x="0" y="600">UNREGISTERED</text><text fill="#eeeeee" stroke="none" font-family="Arial" font-size="24px" font-style="normal" font-weight="normal" text-decoration="none" x="0" y="630">UNREGISTERED</text><text fill="#eeeeee" stroke="none" font-family="Arial" font-size="24px" font-style="normal" font-weight="normal" text-decoration="none" x="0" y="660">UNREGISTERED</text><text fill="#eeeeee" stroke="none" font-family="Arial" font-size="24px" font-style="normal" font-weight="normal" text-decoration="none" x="200" y="0">UNREGISTERED</text><text fill="#eeeeee" stroke="none" font-family="Arial" font-size="24px" font-style="normal" font-weight="normal" text-decoration="none" x="200" y="30">UNREGISTERED</text><text fill="#eeeeee" stroke="none" font-family="Arial" font-size="24px" font-style="normal" font-weight="normal" text-decoration="none" x="200" y="60">UNREGISTERED</text><text fill="#eeeeee" stroke="none" font-family="Arial" font-size="24px" font-style="normal" font-weight="normal" text-decoration="none" x="200" y="90">UNREGISTERED</text><text fill="#eeeeee" stroke="none" font-family="Arial" font-size="24px" font-style="normal" font-weight="normal" text-decoration="none" x="200" y="120">UNREGISTERED</text><text fill="#eeeeee" stroke="none" font-family="Arial" font-size="24px" font-style="normal" font-weight="normal" text-decoration="none" x="200" y="150">UNREGISTERED</text><text fill="#eeeeee" stroke="none" font-family="Arial" font-size="24px" font-style="normal" font-weight="normal" text-decoration="none" x="200" y="180">UNREGISTERED</text><text fill="#eeeeee" stroke="none" font-family="Arial" font-size="24px" font-style="normal" font-weight="normal" text-decoration="none" x="200" y="210">UNREGISTERED</text><text fill="#eeeeee" stroke="none" font-family="Arial" font-size="24px" font-style="normal" font-weight="normal" text-decoration="none" x="200" y="240">UNREGISTERED</text><text fill="#eeeeee" stroke="none" font-family="Arial" font-size="24px" font-style="normal" font-weight="normal" text-decoration="none" x="200" y="270">UNREGISTERED</text><text fill="#eeeeee" stroke="none" font-family="Arial" font-size="24px" font-style="normal" font-weight="normal" text-decoration="none" x="200" y="300">UNREGISTERED</text><text fill="#eeeeee" stroke="none" font-family="Arial" font-size="24px" font-style="normal" font-weight="normal" text-decoration="none" x="200" y="330">UNREGISTERED</text><text fill="#eeeeee" stroke="none" font-family="Arial" font-size="24px" font-style="normal" font-weight="normal" text-decoration="none" x="200" y="360">UNREGISTERED</text><text fill="#eeeeee" stroke="none" font-family="Arial" font-size="24px" font-style="normal" font-weight="normal" text-decoration="none" x="200" y="390">UNREGISTERED</text><text fill="#eeeeee" stroke="none" font-family="Arial" font-size="24px" font-style="normal" font-weight="normal" text-decoration="none" x="200" y="420">UNREGISTERED</text><text fill="#eeeeee" stroke="none" font-family="Arial" font-size="24px" font-style="normal" font-weight="normal" text-decoration="none" x="200" y="450">UNREGISTERED</text><text fill="#eeeeee" stroke="none" font-family="Arial" font-size="24px" font-style="normal" font-weight="normal" text-decoration="none" x="200" y="480">UNREGISTERED</text><text fill="#eeeeee" stroke="none" font-family="Arial" font-size="24px" font-style="normal" font-weight="normal" text-decoration="none" x="200" y="510">UNREGISTERED</text><text fill="#eeeeee" stroke="none" font-family="Arial" font-size="24px" font-style="normal" font-weight="normal" text-decoration="none" x="200" y="540">UNREGISTERED</text><text fill="#eeeeee" stroke="none" font-family="Arial" font-size="24px" font-style="normal" font-weight="normal" text-decoration="none" x="200" y="570">UNREGISTERED</text><text fill="#eeeeee" stroke="none" font-family="Arial" font-size="24px" font-style="normal" font-weight="normal" text-decoration="none" x="200" y="600">UNREGISTERED</text><text fill="#eeeeee" stroke="none" font-family="Arial" font-size="24px" font-style="normal" font-weight="normal" text-decoration="none" x="200" y="630">UNREGISTERED</text><text fill="#eeeeee" stroke="none" font-family="Arial" font-size="24px" font-style="normal" font-weight="normal" text-decoration="none" x="200" y="660">UNREGISTERED</text><text fill="#eeeeee" stroke="none" font-family="Arial" font-size="24px" font-style="normal" font-weight="normal" text-decoration="none" x="400" y="0">UNREGISTERED</text><text fill="#eeeeee" stroke="none" font-family="Arial" font-size="24px" font-style="normal" font-weight="normal" text-decoration="none" x="400" y="30">UNREGISTERED</text><text fill="#eeeeee" stroke="none" font-family="Arial" font-size="24px" font-style="normal" font-weight="normal" text-decoration="none" x="400" y="60">UNREGISTERED</text><text fill="#eeeeee" stroke="none" font-family="Arial" font-size="24px" font-style="normal" font-weight="normal" text-decoration="none" x="400" y="90">UNREGISTERED</text><text fill="#eeeeee" stroke="none" font-family="Arial" font-size="24px" font-style="normal" font-weight="normal" text-decoration="none" x="400" y="120">UNREGISTERED</text><text fill="#eeeeee" stroke="none" font-family="Arial" font-size="24px" font-style="normal" font-weight="normal" text-decoration="none" x="400" y="150">UNREGISTERED</text><text fill="#eeeeee" stroke="none" font-family="Arial" font-size="24px" font-style="normal" font-weight="normal" text-decoration="none" x="400" y="180">UNREGISTERED</text><text fill="#eeeeee" stroke="none" font-family="Arial" font-size="24px" font-style="normal" font-weight="normal" text-decoration="none" x="400" y="210">UNREGISTERED</text><text fill="#eeeeee" stroke="none" font-family="Arial" font-size="24px" font-style="normal" font-weight="normal" text-decoration="none" x="400" y="240">UNREGISTERED</text><text fill="#eeeeee" stroke="none" font-family="Arial" font-size="24px" font-style="normal" font-weight="normal" text-decoration="none" x="400" y="270">UNREGISTERED</text><text fill="#eeeeee" stroke="none" font-family="Arial" font-size="24px" font-style="normal" font-weight="normal" text-decoration="none" x="400" y="300">UNREGISTERED</text><text fill="#eeeeee" stroke="none" font-family="Arial" font-size="24px" font-style="normal" font-weight="normal" text-decoration="none" x="400" y="330">UNREGISTERED</text><text fill="#eeeeee" stroke="none" font-family="Arial" font-size="24px" font-style="normal" font-weight="normal" text-decoration="none" x="400" y="360">UNREGISTERED</text><text fill="#eeeeee" stroke="none" font-family="Arial" font-size="24px" font-style="normal" font-weight="normal" text-decoration="none" x="400" y="390">UNREGISTERED</text><text fill="#eeeeee" stroke="none" font-family="Arial" font-size="24px" font-style="normal" font-weight="normal" text-decoration="none" x="400" y="420">UNREGISTERED</text><text fill="#eeeeee" stroke="none" font-family="Arial" font-size="24px" font-style="normal" font-weight="normal" text-decoration="none" x="400" y="450">UNREGISTERED</text><text fill="#eeeeee" stroke="none" font-family="Arial" font-size="24px" font-style="normal" font-weight="normal" text-decoration="none" x="400" y="480">UNREGISTERED</text><text fill="#eeeeee" stroke="none" font-family="Arial" font-size="24px" font-style="normal" font-weight="normal" text-decoration="none" x="400" y="510">UNREGISTERED</text><text fill="#eeeeee" stroke="none" font-family="Arial" font-size="24px" font-style="normal" font-weight="normal" text-decoration="none" x="400" y="540">UNREGISTERED</text><text fill="#eeeeee" stroke="none" font-family="Arial" font-size="24px" font-style="normal" font-weight="normal" text-decoration="none" x="400" y="570">UNREGISTERED</text><text fill="#eeeeee" stroke="none" font-family="Arial" font-size="24px" font-style="normal" font-weight="normal" text-decoration="none" x="400" y="600">UNREGISTERED</text><text fill="#eeeeee" stroke="none" font-family="Arial" font-size="24px" font-style="normal" font-weight="normal" text-decoration="none" x="400" y="630">UNREGISTERED</text><text fill="#eeeeee" stroke="none" font-family="Arial" font-size="24px" font-style="normal" font-weight="normal" text-decoration="none" x="400" y="660">UNREGISTERED</text><text fill="#eeeeee" stroke="none" font-family="Arial" font-size="24px" font-style="normal" font-weight="normal" text-decoration="none" x="600" y="0">UNREGISTERED</text><text fill="#eeeeee" stroke="none" font-family="Arial" font-size="24px" font-style="normal" font-weight="normal" text-decoration="none" x="600" y="30">UNREGISTERED</text><text fill="#eeeeee" stroke="none" font-family="Arial" font-size="24px" font-style="normal" font-weight="normal" text-decoration="none" x="600" y="60">UNREGISTERED</text><text fill="#eeeeee" stroke="none" font-family="Arial" font-size="24px" font-style="normal" font-weight="normal" text-decoration="none" x="600" y="90">UNREGISTERED</text><text fill="#eeeeee" stroke="none" font-family="Arial" font-size="24px" font-style="normal" font-weight="normal" text-decoration="none" x="600" y="120">UNREGISTERED</text><text fill="#eeeeee" stroke="none" font-family="Arial" font-size="24px" font-style="normal" font-weight="normal" text-decoration="none" x="600" y="150">UNREGISTERED</text><text fill="#eeeeee" stroke="none" font-family="Arial" font-size="24px" font-style="normal" font-weight="normal" text-decoration="none" x="600" y="180">UNREGISTERED</text><text fill="#eeeeee" stroke="none" font-family="Arial" font-size="24px" font-style="normal" font-weight="normal" text-decoration="none" x="600" y="210">UNREGISTERED</text><text fill="#eeeeee" stroke="none" font-family="Arial" font-size="24px" font-style="normal" font-weight="normal" text-decoration="none" x="600" y="240">UNREGISTERED</text><text fill="#eeeeee" stroke="none" font-family="Arial" font-size="24px" font-style="normal" font-weight="normal" text-decoration="none" x="600" y="270">UNREGISTERED</text><text fill="#eeeeee" stroke="none" font-family="Arial" font-size="24px" font-style="normal" font-weight="normal" text-decoration="none" x="600" y="300">UNREGISTERED</text><text fill="#eeeeee" stroke="none" font-family="Arial" font-size="24px" font-style="normal" font-weight="normal" text-decoration="none" x="600" y="330">UNREGISTERED</text><text fill="#eeeeee" stroke="none" font-family="Arial" font-size="24px" font-style="normal" font-weight="normal" text-decoration="none" x="600" y="360">UNREGISTERED</text><text fill="#eeeeee" stroke="none" font-family="Arial" font-size="24px" font-style="normal" font-weight="normal" text-decoration="none" x="600" y="390">UNREGISTERED</text><text fill="#eeeeee" stroke="none" font-family="Arial" font-size="24px" font-style="normal" font-weight="normal" text-decoration="none" x="600" y="420">UNREGISTERED</text><text fill="#eeeeee" stroke="none" font-family="Arial" font-size="24px" font-style="normal" font-weight="normal" text-decoration="none" x="600" y="450">UNREGISTERED</text><text fill="#eeeeee" stroke="none" font-family="Arial" font-size="24px" font-style="normal" font-weight="normal" text-decoration="none" x="600" y="480">UNREGISTERED</text><text fill="#eeeeee" stroke="none" font-family="Arial" font-size="24px" font-style="normal" font-weight="normal" text-decoration="none" x="600" y="510">UNREGISTERED</text><text fill="#eeeeee" stroke="none" font-family="Arial" font-size="24px" font-style="normal" font-weight="normal" text-decoration="none" x="600" y="540">UNREGISTERED</text><text fill="#eeeeee" stroke="none" font-family="Arial" font-size="24px" font-style="normal" font-weight="normal" text-decoration="none" x="600" y="570">UNREGISTERED</text><text fill="#eeeeee" stroke="none" font-family="Arial" font-size="24px" font-style="normal" font-weight="normal" text-decoration="none" x="600" y="600">UNREGISTERED</text><text fill="#eeeeee" stroke="none" font-family="Arial" font-size="24px" font-style="normal" font-weight="normal" text-decoration="none" x="600" y="630">UNREGISTERED</text><text fill="#eeeeee" stroke="none" font-family="Arial" font-size="24px" font-style="normal" font-weight="normal" text-decoration="none" x="600" y="660">UNREGISTERED</text><text fill="#eeeeee" stroke="none" font-family="Arial" font-size="24px" font-style="normal" font-weight="normal" text-decoration="none" x="800" y="0">UNREGISTERED</text><text fill="#eeeeee" stroke="none" font-family="Arial" font-size="24px" font-style="normal" font-weight="normal" text-decoration="none" x="800" y="30">UNREGISTERED</text><text fill="#eeeeee" stroke="none" font-family="Arial" font-size="24px" font-style="normal" font-weight="normal" text-decoration="none" x="800" y="60">UNREGISTERED</text><text fill="#eeeeee" stroke="none" font-family="Arial" font-size="24px" font-style="normal" font-weight="normal" text-decoration="none" x="800" y="90">UNREGISTERED</text><text fill="#eeeeee" stroke="none" font-family="Arial" font-size="24px" font-style="normal" font-weight="normal" text-decoration="none" x="800" y="120">UNREGISTERED</text><text fill="#eeeeee" stroke="none" font-family="Arial" font-size="24px" font-style="normal" font-weight="normal" text-decoration="none" x="800" y="150">UNREGISTERED</text><text fill="#eeeeee" stroke="none" font-family="Arial" font-size="24px" font-style="normal" font-weight="normal" text-decoration="none" x="800" y="180">UNREGISTERED</text><text fill="#eeeeee" stroke="none" font-family="Arial" font-size="24px" font-style="normal" font-weight="normal" text-decoration="none" x="800" y="210">UNREGISTERED</text><text fill="#eeeeee" stroke="none" font-family="Arial" font-size="24px" font-style="normal" font-weight="normal" text-decoration="none" x="800" y="240">UNREGISTERED</text><text fill="#eeeeee" stroke="none" font-family="Arial" font-size="24px" font-style="normal" font-weight="normal" text-decoration="none" x="800" y="270">UNREGISTERED</text><text fill="#eeeeee" stroke="none" font-family="Arial" font-size="24px" font-style="normal" font-weight="normal" text-decoration="none" x="800" y="300">UNREGISTERED</text><text fill="#eeeeee" stroke="none" font-family="Arial" font-size="24px" font-style="normal" font-weight="normal" text-decoration="none" x="800" y="330">UNREGISTERED</text><text fill="#eeeeee" stroke="none" font-family="Arial" font-size="24px" font-style="normal" font-weight="normal" text-decoration="none" x="800" y="360">UNREGISTERED</text><text fill="#eeeeee" stroke="none" font-family="Arial" font-size="24px" font-style="normal" font-weight="normal" text-decoration="none" x="800" y="390">UNREGISTERED</text><text fill="#eeeeee" stroke="none" font-family="Arial" font-size="24px" font-style="normal" font-weight="normal" text-decoration="none" x="800" y="420">UNREGISTERED</text><text fill="#eeeeee" stroke="none" font-family="Arial" font-size="24px" font-style="normal" font-weight="normal" text-decoration="none" x="800" y="450">UNREGISTERED</text><text fill="#eeeeee" stroke="none" font-family="Arial" font-size="24px" font-style="normal" font-weight="normal" text-decoration="none" x="800" y="480">UNREGISTERED</text><text fill="#eeeeee" stroke="none" font-family="Arial" font-size="24px" font-style="normal" font-weight="normal" text-decoration="none" x="800" y="510">UNREGISTERED</text><text fill="#eeeeee" stroke="none" font-family="Arial" font-size="24px" font-style="normal" font-weight="normal" text-decoration="none" x="800" y="540">UNREGISTERED</text><text fill="#eeeeee" stroke="none" font-family="Arial" font-size="24px" font-style="normal" font-weight="normal" text-decoration="none" x="800" y="570">UNREGISTERED</text><text fill="#eeeeee" stroke="none" font-family="Arial" font-size="24px" font-style="normal" font-weight="normal" text-decoration="none" x="800" y="600">UNREGISTERED</text><text fill="#eeeeee" stroke="none" font-family="Arial" font-size="24px" font-style="normal" font-weight="normal" text-decoration="none" x="800" y="630">UNREGISTERED</text><text fill="#eeeeee" stroke="none" font-family="Arial" font-size="24px" font-style="normal" font-weight="normal" text-decoration="none" x="800" y="660">UNREGISTERED</text><g transform="translate(-278,-118) scale(1,1)"><rect fill="#C0C0C0" stroke="none" x="295" y="135" width="358.4" height="15" opacity="0.2"/></g><g transform="translate(-278,-118) scale(1,1)"><rect fill="#C0C0C0" stroke="none" x="295" y="149" width="896" height="650" opacity="0.2"/></g><g transform="translate(-278,-118) scale(1,1)"><rect fill="#ffffff" stroke="none" x="288" y="143" width="896" height="649"/></g><g transform="translate(-278,-118) scale(1,1)"><path fill="none" stroke="#000000" d="M 288 143 L 1184 143 L 1184 792 L 288 792 L 288 143 Z Z" stroke-miterlimit="10"/></g><g transform="translate(-278,-118) scale(1,1)"><rect fill="#ffffff" stroke="none" x="288" y="128" width="358.4" height="15"/></g><g transform="translate(-278,-118) scale(1,1)"><path fill="none" stroke="#000000" d="M 288 128 L 646.4 128 L 646.4 143 L 288 143 L 288 128 Z Z" stroke-miterlimit="10"/></g><g transform="translate(-278,-118) scale(1,1)"><rect fill="#ffffff" stroke="none" x="288" y="142" width="896" height="650"/></g><g transform="translate(-278,-118) scale(1,1)"><path fill="none" stroke="#000000" d="M 288 142 L 1184 142 L 1184 792 L 288 792 L 288 142 Z Z" stroke-miterlimit="10"/></g><g transform="translate(-278,-118) scale(1,1)"><g><path fill="none" stroke="none"/><text fill="#000000" stroke="none" font-family="Arial" font-size="13px" font-style="normal" font-weight="bold" text-decoration="none" x="654.010498046875" y="161">openMarketConsumerCSV</text></g></g><g transform="translate(-278,-118) scale(1,1)"><rect fill="#C0C0C0" stroke="none" x="311" y="167" width="345.6" height="15" opacity="0.2"/></g><g transform="translate(-278,-118) scale(1,1)"><rect fill="#C0C0C0" stroke="none" x="311" y="181" width="864" height="594" opacity="0.2"/></g><g transform="translate(-278,-118) scale(1,1)"><rect fill="#ffffff" stroke="none" x="304" y="175" width="864" height="593"/></g><g transform="translate(-278,-118) scale(1,1)"><path fill="none" stroke="#000000" d="M 304 175 L 1168 175 L 1168 768 L 304 768 L 304 175 Z Z" stroke-miterlimit="10"/></g><g transform="translate(-278,-118) scale(1,1)"><rect fill="#ffffff" stroke="none" x="304" y="160" width="345.6" height="15"/></g><g transform="translate(-278,-118) scale(1,1)"><path fill="none" stroke="#000000" d="M 304 160 L 649.6 160 L 649.6 175 L 304 175 L 304 160 Z Z" stroke-miterlimit="10"/></g><g transform="translate(-278,-118) scale(1,1)"><rect fill="#ffffff" stroke="none" x="304" y="174" width="864" height="594"/></g><g transform="translate(-278,-118) scale(1,1)"><path fill="none" stroke="#000000" d="M 304 174 L 1168 174 L 1168 768 L 304 768 L 304 174 Z Z" stroke-miterlimit="10"/></g><g transform="translate(-278,-118) scale(1,1)"><g><path fill="none" stroke="none"/><text fill="#000000" stroke="none" font-family="Arial" font-size="13px" font-style="normal" font-weight="bold" text-decoration="none" x="726.240478515625" y="191.5">src</text></g></g><g transform="translate(-278,-118) scale(1,1)"><rect fill="#C0C0C0" stroke="none" x="327" y="207" width="252.79999999999995" height="15" opacity="0.2"/></g><g transform="translate(-278,-118) scale(1,1)"><rect fill="#C0C0C0" stroke="none" x="327" y="221" width="632" height="538" opacity="0.2"/></g><g transform="translate(-278,-118) scale(1,1)"><rect fill="#ffffff" stroke="none" x="320" y="215" width="632" height="537"/></g><g transform="translate(-278,-118) scale(1,1)"><path fill="none" stroke="#000000" d="M 320 215 L 952 215 L 952 752 L 320 752 L 320 215 Z Z" stroke-miterlimit="10"/></g><g transform="translate(-278,-118) scale(1,1)"><rect fill="#ffffff" stroke="none" x="320" y="200" width="252.79999999999995" height="15"/></g><g transform="translate(-278,-118) scale(1,1)"><path fill="none" stroke="#000000" d="M 320 200 L 572.8 200 L 572.8 215 L 320 215 L 320 200 Z Z" stroke-miterlimit="10"/></g><g transform="translate(-278,-118) scale(1,1)"><rect fill="#ffffff" stroke="none" x="320" y="214" width="632" height="538"/></g><g transform="translate(-278,-118) scale(1,1)"><path fill="none" stroke="#000000" d="M 320 214 L 952 214 L 952 752 L 320 752 L 320 214 Z Z" stroke-miterlimit="10"/></g><g transform="translate(-278,-118) scale(1,1)"><g><path fill="none" stroke="none"/><text fill="#000000" stroke="none" font-family="Arial" font-size="13px" font-style="normal" font-weight="bold" text-decoration="none" x="620.8291015625" y="233">main</text></g></g><g transform="translate(-278,-118) scale(1,1)"><rect fill="#C0C0C0" stroke="none" x="999" y="207" width="64" height="15" opacity="0.2"/></g><g transform="translate(-278,-118) scale(1,1)"><rect fill="#C0C0C0" stroke="none" x="999" y="221" width="160" height="82" opacity="0.2"/></g><g transform="translate(-278,-118) scale(1,1)"><rect fill="#ffffff" stroke="none" x="992" y="215" width="160" height="81"/></g><g transform="translate(-278,-118) scale(1,1)"><path fill="none" stroke="#000000" d="M 992 215 L 1152 215 L 1152 296 L 992 296 L 992 215 Z Z" stroke-miterlimit="10"/></g><g transform="translate(-278,-118) scale(1,1)"><rect fill="#ffffff" stroke="none" x="992" y="200" width="64" height="15"/></g><g transform="translate(-278,-118) scale(1,1)"><path fill="none" stroke="#000000" d="M 992 200 L 1056 200 L 1056 215 L 992 215 L 992 200 Z Z" stroke-miterlimit="10"/></g><g transform="translate(-278,-118) scale(1,1)"><rect fill="#ffffff" stroke="none" x="992" y="214" width="160" height="82"/></g><g transform="translate(-278,-118) scale(1,1)"><path fill="none" stroke="#000000" d="M 992 214 L 1152 214 L 1152 296 L 992 296 L 992 214 Z Z" stroke-miterlimit="10"/></g><g transform="translate(-278,-118) scale(1,1)"><g><path fill="none" stroke="none"/><text fill="#000000" stroke="none" font-family="Arial" font-size="13px" font-style="normal" font-weight="bold" text-decoration="none" x="1060.44091796875" y="232.5">test</text></g></g><g transform="translate(-278,-118) scale(1,1)"><rect fill="#C0C0C0" stroke="none" x="1007" y="239" width="57.59999999999991" height="15" opacity="0.2"/></g><g transform="translate(-278,-118) scale(1,1)"><rect fill="#C0C0C0" stroke="none" x="1007" y="253" width="144" height="42" opacity="0.2"/></g><g transform="translate(-278,-118) scale(1,1)"><rect fill="#ffffff" stroke="none" x="1000" y="247" width="144" height="41"/></g><g transform="translate(-278,-118) scale(1,1)"><path fill="none" stroke="#000000" d="M 1000 247 L 1144 247 L 1144 288 L 1000 288 L 1000 247 Z Z" stroke-miterlimit="10"/></g><g transform="translate(-278,-118) scale(1,1)"><rect fill="#ffffff" stroke="none" x="1000" y="232" width="57.59999999999991" height="15"/></g><g transform="translate(-278,-118) scale(1,1)"><path fill="none" stroke="#000000" d="M 1000 232 L 1057.6 232 L 1057.6 247 L 1000 247 L 1000 232 Z Z" stroke-miterlimit="10"/></g><g transform="translate(-278,-118) scale(1,1)"><rect fill="#ffffff" stroke="none" x="1000" y="246" width="144" height="42"/></g><g transform="translate(-278,-118) scale(1,1)"><path fill="none" stroke="#000000" d="M 1000 246 L 1144 246 L 1144 288 L 1000 288 L 1000 246 Z Z" stroke-miterlimit="10"/></g><g transform="translate(-278,-118) scale(1,1)"><g><path fill="none" stroke="none"/><text fill="#000000" stroke="none" font-family="Arial" font-size="13px" font-style="normal" font-weight="bold" text-decoration="none" x="1059.34912109375" y="265">java</text></g></g><g transform="translate(-278,-118) scale(1,1)"><rect fill="#C0C0C0" stroke="none" x="343" y="247" width="240" height="15" opacity="0.2"/></g><g transform="translate(-278,-118) scale(1,1)"><rect fill="#C0C0C0" stroke="none" x="343" y="261" width="600" height="338" opacity="0.2"/></g><g transform="translate(-278,-118) scale(1,1)"><rect fill="#ffffff" stroke="none" x="336" y="255" width="600" height="337"/></g><g transform="translate(-278,-118) scale(1,1)"><path fill="none" stroke="#000000" d="M 336 255 L 936 255 L 936 592 L 336 592 L 336 255 Z Z" stroke-miterlimit="10"/></g><g transform="translate(-278,-118) scale(1,1)"><rect fill="#ffffff" stroke="none" x="336" y="240" width="240" height="15"/></g><g transform="translate(-278,-118) scale(1,1)"><path fill="none" stroke="#000000" d="M 336 240 L 576 240 L 576 255 L 336 255 L 336 240 Z Z" stroke-miterlimit="10"/></g><g transform="translate(-278,-118) scale(1,1)"><rect fill="#ffffff" stroke="none" x="336" y="254" width="600" height="338"/></g><g transform="translate(-278,-118) scale(1,1)"><path fill="none" stroke="#000000" d="M 336 254 L 936 254 L 936 592 L 336 592 L 336 254 Z Z" stroke-miterlimit="10"/></g><g transform="translate(-278,-118) scale(1,1)"><g><path fill="none" stroke="none"/><text fill="#000000" stroke="none" font-family="Arial" font-size="13px" font-style="normal" font-weight="bold" text-decoration="none" x="628.41455078125" y="271.5">co</text></g></g><g transform="translate(-278,-118) scale(1,1)"><rect fill="#C0C0C0" stroke="none" x="343" y="623" width="44.80000000000001" height="15" opacity="0.2"/></g><g transform="translate(-278,-118) scale(1,1)"><rect fill="#C0C0C0" stroke="none" x="343" y="637" width="112" height="106" opacity="0.2"/></g><g transform="translate(-278,-118) scale(1,1)"><rect fill="#ffffff" stroke="none" x="336" y="631" width="112" height="105"/></g><g transform="translate(-278,-118) scale(1,1)"><path fill="none" stroke="#000000" d="M 336 631 L 448 631 L 448 736 L 336 736 L 336 631 Z Z" stroke-miterlimit="10"/></g><g transform="translate(-278,-118) scale(1,1)"><rect fill="#ffffff" stroke="none" x="336" y="616" width="44.80000000000001" height="15"/></g><g transform="translate(-278,-118) scale(1,1)"><path fill="none" stroke="#000000" d="M 336 616 L 380.8 616 L 380.8 631 L 336 631 L 336 616 Z Z" stroke-miterlimit="10"/></g><g transform="translate(-278,-118) scale(1,1)"><rect fill="#ffffff" stroke="none" x="336" y="630" width="112" height="106"/></g><g transform="translate(-278,-118) scale(1,1)"><path fill="none" stroke="#000000" d="M 336 630 L 448 630 L 448 736 L 336 736 L 336 630 Z Z" stroke-miterlimit="10"/></g><g transform="translate(-278,-118) scale(1,1)"><g><path fill="none" stroke="none"/><text fill="#000000" stroke="none" font-family="Arial" font-size="13px" font-style="normal" font-weight="bold" text-decoration="none" x="378.63818359375" y="649">utils</text></g></g><g transform="translate(-278,-118) scale(1,1)"><rect fill="#C0C0C0" stroke="none" x="359" y="671" width="72.55908203125" height="44" opacity="0.2"/></g><g transform="translate(-278,-118) scale(1,1)"><rect fill="#ffffff" stroke="none" x="352" y="664" width="72.55908203125" height="44"/></g><g transform="translate(-278,-118) scale(1,1)"><path fill="none" stroke="#000000" d="M 352 664 L 424.55908203125 664 L 424.55908203125 708 L 352 708 L 352 664 Z Z" stroke-miterlimit="10"/></g><g transform="translate(-278,-118) scale(1,1)"><path fill="none" stroke="#000000" d="M 352 689 L 424.55908203125 689" stroke-miterlimit="10"/></g><g transform="translate(-278,-118) scale(1,1)"><path fill="none" stroke="#000000" d="M 352 699 L 424.55908203125 699" stroke-miterlimit="10"/></g><g transform="translate(-278,-118) scale(1,1)"><g><path fill="none" stroke="none"/><text fill="#000000" stroke="none" font-family="Arial" font-size="13px" font-style="normal" font-weight="bold" text-decoration="none" x="356.5" y="682">Constants</text></g></g><g transform="translate(-278,-118) scale(1,1)"><rect fill="#C0C0C0" stroke="none" x="359" y="279" width="227.20000000000005" height="15" opacity="0.2"/></g><g transform="translate(-278,-118) scale(1,1)"><rect fill="#C0C0C0" stroke="none" x="359" y="293" width="568" height="290" opacity="0.2"/></g><g transform="translate(-278,-118) scale(1,1)"><rect fill="#ffffff" stroke="none" x="352" y="287" width="568" height="289"/></g><g transform="translate(-278,-118) scale(1,1)"><path fill="none" stroke="#000000" d="M 352 287 L 920 287 L 920 576 L 352 576 L 352 287 Z Z" stroke-miterlimit="10"/></g><g transform="translate(-278,-118) scale(1,1)"><rect fill="#ffffff" stroke="none" x="352" y="272" width="227.20000000000005" height="15"/></g><g transform="translate(-278,-118) scale(1,1)"><path fill="none" stroke="#000000" d="M 352 272 L 579.2 272 L 579.2 287 L 352 287 L 352 272 Z Z" stroke-miterlimit="10"/></g><g transform="translate(-278,-118) scale(1,1)"><rect fill="#ffffff" stroke="none" x="352" y="286" width="568" height="290"/></g><g transform="translate(-278,-118) scale(1,1)"><path fill="none" stroke="#000000" d="M 352 286 L 920 286 L 920 576 L 352 576 L 352 286 Z Z" stroke-miterlimit="10"/></g><g transform="translate(-278,-118) scale(1,1)"><g><path fill="none" stroke="none"/><text fill="#000000" stroke="none" font-family="Arial" font-size="13px" font-style="normal" font-weight="bold" text-decoration="none" x="607.82275390625" y="305">unicauca</text></g></g><g transform="translate(-278,-118) scale(1,1)"><rect fill="#C0C0C0" stroke="none" x="375" y="319" width="214.39999999999998" height="15" opacity="0.2"/></g><g transform="translate(-278,-118) scale(1,1)"><rect fill="#C0C0C0" stroke="none" x="375" y="333" width="536" height="234" opacity="0.2"/></g><g transform="translate(-278,-118) scale(1,1)"><rect fill="#ffffff" stroke="none" x="368" y="327" width="536" height="233"/></g><g transform="translate(-278,-118) scale(1,1)"><path fill="none" stroke="#000000" d="M 368 327 L 904 327 L 904 560 L 368 560 L 368 327 Z Z" stroke-miterlimit="10"/></g><g transform="translate(-278,-118) scale(1,1)"><rect fill="#ffffff" stroke="none" x="368" y="312" width="214.39999999999998" height="15"/></g><g transform="translate(-278,-118) scale(1,1)"><path fill="none" stroke="#000000" d="M 368 312 L 582.4 312 L 582.4 327 L 368 327 L 368 312 Z Z" stroke-miterlimit="10"/></g><g transform="translate(-278,-118) scale(1,1)"><rect fill="#ffffff" stroke="none" x="368" y="326" width="536" height="234"/></g><g transform="translate(-278,-118) scale(1,1)"><path fill="none" stroke="#000000" d="M 368 326 L 904 326 L 904 560 L 368 560 L 368 326 Z Z" stroke-miterlimit="10"/></g><g transform="translate(-278,-118) scale(1,1)"><g><path fill="none" stroke="none"/><text fill="#000000" stroke="none" font-family="Arial" font-size="13px" font-style="normal" font-weight="bold" text-decoration="none" x="557.24462890625" y="345">openmarketconsumercsv</text></g></g><g transform="translate(-278,-118) scale(1,1)"><rect fill="#C0C0C0" stroke="none" x="391" y="351" width="140.79999999999995" height="15" opacity="0.2"/></g><g transform="translate(-278,-118) scale(1,1)"><rect fill="#C0C0C0" stroke="none" x="391" y="365" width="352" height="186" opacity="0.2"/></g><g transform="translate(-278,-118) scale(1,1)"><rect fill="#ffffff" stroke="none" x="384" y="359" width="352" height="185"/></g><g transform="translate(-278,-118) scale(1,1)"><path fill="none" stroke="#000000" d="M 384 359 L 736 359 L 736 544 L 384 544 L 384 359 Z Z" stroke-miterlimit="10"/></g><g transform="translate(-278,-118) scale(1,1)"><rect fill="#ffffff" stroke="none" x="384" y="344" width="140.79999999999995" height="15"/></g><g transform="translate(-278,-118) scale(1,1)"><path fill="none" stroke="#000000" d="M 384 344 L 524.8 344 L 524.8 359 L 384 359 L 384 344 Z Z" stroke-miterlimit="10"/></g><g transform="translate(-278,-118) scale(1,1)"><rect fill="#ffffff" stroke="none" x="384" y="358" width="352" height="186"/></g><g transform="translate(-278,-118) scale(1,1)"><path fill="none" stroke="#000000" d="M 384 358 L 736 358 L 736 544 L 384 544 L 384 358 Z Z" stroke-miterlimit="10"/></g><g transform="translate(-278,-118) scale(1,1)"><g><path fill="none" stroke="none"/><text fill="#000000" stroke="none" font-family="Arial" font-size="13px" font-style="normal" font-weight="bold" text-decoration="none" x="536.88818359375" y="377">domain</text></g></g><g transform="translate(-278,-118) scale(1,1)"><rect fill="#C0C0C0" stroke="none" x="759" y="351" width="51.200000000000045" height="15" opacity="0.2"/></g><g transform="translate(-278,-118) scale(1,1)"><rect fill="#C0C0C0" stroke="none" x="759" y="365" width="128" height="82" opacity="0.2"/></g><g transform="translate(-278,-118) scale(1,1)"><rect fill="#ffffff" stroke="none" x="752" y="359" width="128" height="81"/></g><g transform="translate(-278,-118) scale(1,1)"><path fill="none" stroke="#000000" d="M 752 359 L 880 359 L 880 440 L 752 440 L 752 359 Z Z" stroke-miterlimit="10"/></g><g transform="translate(-278,-118) scale(1,1)"><rect fill="#ffffff" stroke="none" x="752" y="344" width="51.200000000000045" height="15"/></g><g transform="translate(-278,-118) scale(1,1)"><path fill="none" stroke="#000000" d="M 752 344 L 803.2 344 L 803.2 359 L 752 359 L 752 344 Z Z" stroke-miterlimit="10"/></g><g transform="translate(-278,-118) scale(1,1)"><rect fill="#ffffff" stroke="none" x="752" y="358" width="128" height="82"/></g><g transform="translate(-278,-118) scale(1,1)"><path fill="none" stroke="#000000" d="M 752 358 L 880 358 L 880 440 L 752 440 L 752 358 Z Z" stroke-miterlimit="10"/></g><g transform="translate(-278,-118) scale(1,1)"><g><path fill="none" stroke="none"/><text fill="#000000" stroke="none" font-family="Arial" font-size="13px" font-style="normal" font-weight="bold" text-decoration="none" x="800.8291015625" y="377">main</text></g></g><g transform="translate(-278,-118) scale(1,1)"><rect fill="#C0C0C0" stroke="none" x="767" y="391" width="110.86083984375" height="44" opacity="0.2"/></g><g transform="translate(-278,-118) scale(1,1)"><rect fill="#ffffff" stroke="none" x="760" y="384" width="110.86083984375" height="44"/></g><g transform="translate(-278,-118) scale(1,1)"><path fill="none" stroke="#000000" d="M 760 384 L 870.86083984375 384 L 870.86083984375 428 L 760 428 L 760 384 Z Z" stroke-miterlimit="10"/></g><g transform="translate(-278,-118) scale(1,1)"><path fill="none" stroke="#000000" d="M 760 409 L 870.86083984375 409" stroke-miterlimit="10"/></g><g transform="translate(-278,-118) scale(1,1)"><path fill="none" stroke="#000000" d="M 760 419 L 870.86083984375 419" stroke-miterlimit="10"/></g><g transform="translate(-278,-118) scale(1,1)"><g><path fill="none" stroke="none"/><text fill="#000000" stroke="none" font-family="Arial" font-size="13px" font-style="normal" font-weight="bold" text-decoration="none" x="764.5" y="402">OpenMarketCSV</text></g></g><g transform="translate(-278,-118) scale(1,1)"><rect fill="#C0C0C0" stroke="none" x="407" y="383" width="124.79999999999995" height="15" opacity="0.2"/></g><g transform="translate(-278,-118) scale(1,1)"><rect fill="#C0C0C0" stroke="none" x="407" y="397" width="312" height="138" opacity="0.2"/></g><g transform="translate(-278,-118) scale(1,1)"><rect fill="#ffffff" stroke="none" x="400" y="391" width="312" height="137"/></g><g transform="translate(-278,-118) scale(1,1)"><path fill="none" stroke="#000000" d="M 400 391 L 712 391 L 712 528 L 400 528 L 400 391 Z Z" stroke-miterlimit="10"/></g><g transform="translate(-278,-118) scale(1,1)"><rect fill="#ffffff" stroke="none" x="400" y="376" width="124.79999999999995" height="15"/></g><g transform="translate(-278,-118) scale(1,1)"><path fill="none" stroke="#000000" d="M 400 376 L 524.8 376 L 524.8 391 L 400 391 L 400 376 Z Z" stroke-miterlimit="10"/></g><g transform="translate(-278,-118) scale(1,1)"><rect fill="#ffffff" stroke="none" x="400" y="390" width="312" height="138"/></g><g transform="translate(-278,-118) scale(1,1)"><path fill="none" stroke="#000000" d="M 400 390 L 712 390 L 712 528 L 400 528 L 400 390 Z Z" stroke-miterlimit="10"/></g><g transform="translate(-278,-118) scale(1,1)"><g><path fill="none" stroke="none"/><text fill="#000000" stroke="none" font-family="Arial" font-size="13px" font-style="normal" font-weight="bold" text-decoration="none" x="533.589599609375" y="409">service</text></g></g><g transform="translate(-278,-118) scale(1,1)"><rect fill="#C0C0C0" stroke="none" x="415" y="423" width="114.4853515625" height="44" opacity="0.2"/></g><g transform="translate(-278,-118) scale(1,1)"><rect fill="#ffffff" stroke="none" x="408" y="416" width="114.4853515625" height="44"/></g><g transform="translate(-278,-118) scale(1,1)"><path fill="none" stroke="#000000" d="M 408 416 L 522.4853515625 416 L 522.4853515625 460 L 408 460 L 408 416 Z Z" stroke-miterlimit="10"/></g><g transform="translate(-278,-118) scale(1,1)"><path fill="none" stroke="#000000" d="M 408 441 L 522.4853515625 441" stroke-miterlimit="10"/></g><g transform="translate(-278,-118) scale(1,1)"><path fill="none" stroke="#000000" d="M 408 451 L 522.4853515625 451" stroke-miterlimit="10"/></g><g transform="translate(-278,-118) scale(1,1)"><g><path fill="none" stroke="none"/><text fill="#000000" stroke="none" font-family="Arial" font-size="13px" font-style="normal" font-weight="bold" text-decoration="none" x="412.5" y="434">EventLogService</text></g></g><g transform="translate(-278,-118) scale(1,1)"><path fill="#C0C0C0" stroke="none" d="M 462.548583984375 490.5 C 462.548583984375 484.1487248 467.697308784375 479 474.048583984375 479 C 480.399859184375 479 485.548583984375 484.1487248 485.548583984375 490.5 C 485.548583984375 496.8512752 480.399859184375 502 474.048583984375 502 C 467.697308784375 502 462.548583984375 496.8512752 462.548583984375 490.5 Z" opacity="0.2"/></g><g transform="translate(-278,-118) scale(1,1)"><path fill="#ffffff" stroke="none" d="M 455.548583984375 483.5 C 455.548583984375 477.1487248 460.697308784375 472 467.048583984375 472 C 473.399859184375 472 478.548583984375 477.1487248 478.548583984375 483.5 C 478.548583984375 489.8512752 473.399859184375 495 467.048583984375 495 C 460.697308784375 495 455.548583984375 489.8512752 455.548583984375 483.5 Z"/></g><g transform="translate(-278,-118) scale(1,1)"><path fill="none" stroke="#000000" d="M 455.548583984375 483.5 C 455.548583984375 477.1487248 460.697308784375 472 467.048583984375 472 C 473.399859184375 472 478.548583984375 477.1487248 478.548583984375 483.5 C 478.548583984375 489.8512752 473.399859184375 495 467.048583984375 495 C 460.697308784375 495 455.548583984375 489.8512752 455.548583984375 483.5 Z" stroke-miterlimit="10"/></g><g transform="translate(-278,-118) scale(1,1)"><g><path fill="none" stroke="none"/><text fill="#000000" stroke="none" font-family="Arial" font-size="13px" font-style="normal" font-weight="bold" text-decoration="none" x="412.5" y="513">IEventLogService</text></g></g><g transform="translate(-278,-118) scale(1,1)"><rect fill="#C0C0C0" stroke="none" x="567" y="447" width="134.6708984375" height="44" opacity="0.2"/></g><g transform="translate(-278,-118) scale(1,1)"><rect fill="#ffffff" stroke="none" x="560" y="440" width="134.6708984375" height="44"/></g><g transform="translate(-278,-118) scale(1,1)"><path fill="none" stroke="#000000" d="M 560 440 L 694.6708984375 440 L 694.6708984375 484 L 560 484 L 560 440 Z Z" stroke-miterlimit="10"/></g><g transform="translate(-278,-118) scale(1,1)"><path fill="none" stroke="#000000" d="M 560 465 L 694.6708984375 465" stroke-miterlimit="10"/></g><g transform="translate(-278,-118) scale(1,1)"><path fill="none" stroke="#000000" d="M 560 475 L 694.6708984375 475" stroke-miterlimit="10"/></g><g transform="translate(-278,-118) scale(1,1)"><g><path fill="none" stroke="none"/><text fill="#000000" stroke="none" font-family="Arial" font-size="13px" font-style="normal" font-weight="bold" text-decoration="none" x="564.5" y="458">RabbitMQConsumer</text></g></g><g transform="translate(-278,-118) scale(1,1)"><path fill="none" stroke="#000000" d="M 627 485 L 624 688 L 426 686" stroke-miterlimit="10" stroke-dasharray="3"/></g><g transform="translate(-278,-118) scale(1,1)"><path fill="none" stroke="#000000" d="M 436.204674658732 681.893345021866 L 426 686 L 436.11963823402397 690.3119510679599" stroke-miterlimit="10"/></g><g transform="translate(-278,-118) scale(1,1)"><path fill="none" stroke="#000000" d="M 815 429 L 816 472 L 696 466" stroke-miterlimit="10" stroke-dasharray="3"/></g><g transform="translate(-278,-118) scale(1,1)"><path fill="none" stroke="#000000" d="M 706.3602085685256 462.3032340597966 L 696 466 L 705.9397819980887 470.71176546853417" stroke-miterlimit="10"/></g></g></svg>