<svg version="1.1" xmlns="http://www.w3.org/2000/svg" xmlns:xlink="http://www.w3.org/1999/xlink" width="1503.2890625" height="476"><defs/><g><text fill="#eeeeee" stroke="none" font-family="Arial" font-size="24px" font-style="normal" font-weight="normal" text-decoration="none" x="0" y="0">UNREGISTERED</text><text fill="#eeeeee" stroke="none" font-family="Arial" font-size="24px" font-style="normal" font-weight="normal" text-decoration="none" x="0" y="30">UNREGISTERED</text><text fill="#eeeeee" stroke="none" font-family="Arial" font-size="24px" font-style="normal" font-weight="normal" text-decoration="none" x="0" y="60">UNREGISTERED</text><text fill="#eeeeee" stroke="none" font-family="Arial" font-size="24px" font-style="normal" font-weight="normal" text-decoration="none" x="0" y="90">UNREGISTERED</text><text fill="#eeeeee" stroke="none" font-family="Arial" font-size="24px" font-style="normal" font-weight="normal" text-decoration="none" x="0" y="120">UNREGISTERED</text><text fill="#eeeeee" stroke="none" font-family="Arial" font-size="24px" font-style="normal" font-weight="normal" text-decoration="none" x="0" y="150">UNREGISTERED</text><text fill="#eeeeee" stroke="none" font-family="Arial" font-size="24px" font-style="normal" font-weight="normal" text-decoration="none" x="0" y="180">UNREGISTERED</text><text fill="#eeeeee" stroke="none" font-family="Arial" font-size="24px" font-style="normal" font-weight="normal" text-decoration="none" x="0" y="210">UNREGISTERED</text><text fill="#eeeeee" stroke="none" font-family="Arial" font-size="24px" font-style="normal" font-weight="normal" text-decoration="none" x="0" y="240">UNREGISTERED</text><text fill="#eeeeee" stroke="none" font-family="Arial" font-size="24px" font-style="normal" font-weight="normal" text-decoration="none" x="0" y="270">UNREGISTERED</text><text fill="#eeeeee" stroke="none" font-family="Arial" font-size="24px" font-style="normal" font-weight="normal" text-decoration="none" x="0" y="300">UNREGISTERED</text><text fill="#eeeeee" stroke="none" font-family="Arial" font-size="24px" font-style="normal" font-weight="normal" text-decoration="none" x="0" y="330">UNREGISTERED</text><text fill="#eeeeee" stroke="none" font-family="Arial" font-size="24px" font-style="normal" font-weight="normal" text-decoration="none" x="0" y="360">UNREGISTERED</text><text fill="#eeeeee" stroke="none" font-family="Arial" font-size="24px" font-style="normal" font-weight="normal" text-decoration="none" x="0" y="390">UNREGISTERED</text><text fill="#eeeeee" stroke="none" font-family="Arial" font-size="24px" font-style="normal" font-weight="normal" text-decoration="none" x="0" y="420">UNREGISTERED</text><text fill="#eeeeee" stroke="none" font-family="Arial" font-size="24px" font-style="normal" font-weight="normal" text-decoration="none" x="0" y="450">UNREGISTERED</text><text fill="#eeeeee" stroke="none" font-family="Arial" font-size="24px" font-style="normal" font-weight="normal" text-decoration="none" x="200" y="0">UNREGISTERED</text><text fill="#eeeeee" stroke="none" font-family="Arial" font-size="24px" font-style="normal" font-weight="normal" text-decoration="none" x="200" y="30">UNREGISTERED</text><text fill="#eeeeee" stroke="none" font-family="Arial" font-size="24px" font-style="normal" font-weight="normal" text-decoration="none" x="200" y="60">UNREGISTERED</text><text fill="#eeeeee" stroke="none" font-family="Arial" font-size="24px" font-style="normal" font-weight="normal" text-decoration="none" x="200" y="90">UNREGISTERED</text><text fill="#eeeeee" stroke="none" font-family="Arial" font-size="24px" font-style="normal" font-weight="normal" text-decoration="none" x="200" y="120">UNREGISTERED</text><text fill="#eeeeee" stroke="none" font-family="Arial" font-size="24px" font-style="normal" font-weight="normal" text-decoration="none" x="200" y="150">UNREGISTERED</text><text fill="#eeeeee" stroke="none" font-family="Arial" font-size="24px" font-style="normal" font-weight="normal" text-decoration="none" x="200" y="180">UNREGISTERED</text><text fill="#eeeeee" stroke="none" font-family="Arial" font-size="24px" font-style="normal" font-weight="normal" text-decoration="none" x="200" y="210">UNREGISTERED</text><text fill="#eeeeee" stroke="none" font-family="Arial" font-size="24px" font-style="normal" font-weight="normal" text-decoration="none" x="200" y="240">UNREGISTERED</text><text fill="#eeeeee" stroke="none" font-family="Arial" font-size="24px" font-style="normal" font-weight="normal" text-decoration="none" x="200" y="270">UNREGISTERED</text><text fill="#eeeeee" stroke="none" font-family="Arial" font-size="24px" font-style="normal" font-weight="normal" text-decoration="none" x="200" y="300">UNREGISTERED</text><text fill="#eeeeee" stroke="none" font-family="Arial" font-size="24px" font-style="normal" font-weight="normal" text-decoration="none" x="200" y="330">UNREGISTERED</text><text fill="#eeeeee" stroke="none" font-family="Arial" font-size="24px" font-style="normal" font-weight="normal" text-decoration="none" x="200" y="360">UNREGISTERED</text><text fill="#eeeeee" stroke="none" font-family="Arial" font-size="24px" font-style="normal" font-weight="normal" text-decoration="none" x="200" y="390">UNREGISTERED</text><text fill="#eeeeee" stroke="none" font-family="Arial" font-size="24px" font-style="normal" font-weight="normal" text-decoration="none" x="200" y="420">UNREGISTERED</text><text fill="#eeeeee" stroke="none" font-family="Arial" font-size="24px" font-style="normal" font-weight="normal" text-decoration="none" x="200" y="450">UNREGISTERED</text><text fill="#eeeeee" stroke="none" font-family="Arial" font-size="24px" font-style="normal" font-weight="normal" text-decoration="none" x="400" y="0">UNREGISTERED</text><text fill="#eeeeee" stroke="none" font-family="Arial" font-size="24px" font-style="normal" font-weight="normal" text-decoration="none" x="400" y="30">UNREGISTERED</text><text fill="#eeeeee" stroke="none" font-family="Arial" font-size="24px" font-style="normal" font-weight="normal" text-decoration="none" x="400" y="60">UNREGISTERED</text><text fill="#eeeeee" stroke="none" font-family="Arial" font-size="24px" font-style="normal" font-weight="normal" text-decoration="none" x="400" y="90">UNREGISTERED</text><text fill="#eeeeee" stroke="none" font-family="Arial" font-size="24px" font-style="normal" font-weight="normal" text-decoration="none" x="400" y="120">UNREGISTERED</text><text fill="#eeeeee" stroke="none" font-family="Arial" font-size="24px" font-style="normal" font-weight="normal" text-decoration="none" x="400" y="150">UNREGISTERED</text><text fill="#eeeeee" stroke="none" font-family="Arial" font-size="24px" font-style="normal" font-weight="normal" text-decoration="none" x="400" y="180">UNREGISTERED</text><text fill="#eeeeee" stroke="none" font-family="Arial" font-size="24px" font-style="normal" font-weight="normal" text-decoration="none" x="400" y="210">UNREGISTERED</text><text fill="#eeeeee" stroke="none" font-family="Arial" font-size="24px" font-style="normal" font-weight="normal" text-decoration="none" x="400" y="240">UNREGISTERED</text><text fill="#eeeeee" stroke="none" font-family="Arial" font-size="24px" font-style="normal" font-weight="normal" text-decoration="none" x="400" y="270">UNREGISTERED</text><text fill="#eeeeee" stroke="none" font-family="Arial" font-size="24px" font-style="normal" font-weight="normal" text-decoration="none" x="400" y="300">UNREGISTERED</text><text fill="#eeeeee" stroke="none" font-family="Arial" font-size="24px" font-style="normal" font-weight="normal" text-decoration="none" x="400" y="330">UNREGISTERED</text><text fill="#eeeeee" stroke="none" font-family="Arial" font-size="24px" font-style="normal" font-weight="normal" text-decoration="none" x="400" y="360">UNREGISTERED</text><text fill="#eeeeee" stroke="none" font-family="Arial" font-size="24px" font-style="normal" font-weight="normal" text-decoration="none" x="400" y="390">UNREGISTERED</text><text fill="#eeeeee" stroke="none" font-family="Arial" font-size="24px" font-style="normal" font-weight="normal" text-decoration="none" x="400" y="420">UNREGISTERED</text><text fill="#eeeeee" stroke="none" font-family="Arial" font-size="24px" font-style="normal" font-weight="normal" text-decoration="none" x="400" y="450">UNREGISTERED</text><text fill="#eeeeee" stroke="none" font-family="Arial" font-size="24px" font-style="normal" font-weight="normal" text-decoration="none" x="600" y="0">UNREGISTERED</text><text fill="#eeeeee" stroke="none" font-family="Arial" font-size="24px" font-style="normal" font-weight="normal" text-decoration="none" x="600" y="30">UNREGISTERED</text><text fill="#eeeeee" stroke="none" font-family="Arial" font-size="24px" font-style="normal" font-weight="normal" text-decoration="none" x="600" y="60">UNREGISTERED</text><text fill="#eeeeee" stroke="none" font-family="Arial" font-size="24px" font-style="normal" font-weight="normal" text-decoration="none" x="600" y="90">UNREGISTERED</text><text fill="#eeeeee" stroke="none" font-family="Arial" font-size="24px" font-style="normal" font-weight="normal" text-decoration="none" x="600" y="120">UNREGISTERED</text><text fill="#eeeeee" stroke="none" font-family="Arial" font-size="24px" font-style="normal" font-weight="normal" text-decoration="none" x="600" y="150">UNREGISTERED</text><text fill="#eeeeee" stroke="none" font-family="Arial" font-size="24px" font-style="normal" font-weight="normal" text-decoration="none" x="600" y="180">UNREGISTERED</text><text fill="#eeeeee" stroke="none" font-family="Arial" font-size="24px" font-style="normal" font-weight="normal" text-decoration="none" x="600" y="210">UNREGISTERED</text><text fill="#eeeeee" stroke="none" font-family="Arial" font-size="24px" font-style="normal" font-weight="normal" text-decoration="none" x="600" y="240">UNREGISTERED</text><text fill="#eeeeee" stroke="none" font-family="Arial" font-size="24px" font-style="normal" font-weight="normal" text-decoration="none" x="600" y="270">UNREGISTERED</text><text fill="#eeeeee" stroke="none" font-family="Arial" font-size="24px" font-style="normal" font-weight="normal" text-decoration="none" x="600" y="300">UNREGISTERED</text><text fill="#eeeeee" stroke="none" font-family="Arial" font-size="24px" font-style="normal" font-weight="normal" text-decoration="none" x="600" y="330">UNREGISTERED</text><text fill="#eeeeee" stroke="none" font-family="Arial" font-size="24px" font-style="normal" font-weight="normal" text-decoration="none" x="600" y="360">UNREGISTERED</text><text fill="#eeeeee" stroke="none" font-family="Arial" font-size="24px" font-style="normal" font-weight="normal" text-decoration="none" x="600" y="390">UNREGISTERED</text><text fill="#eeeeee" stroke="none" font-family="Arial" font-size="24px" font-style="normal" font-weight="normal" text-decoration="none" x="600" y="420">UNREGISTERED</text><text fill="#eeeeee" stroke="none" font-family="Arial" font-size="24px" font-style="normal" font-weight="normal" text-decoration="none" x="600" y="450">UNREGISTERED</text><text fill="#eeeeee" stroke="none" font-family="Arial" font-size="24px" font-style="normal" font-weight="normal" text-decoration="none" x="800" y="0">UNREGISTERED</text><text fill="#eeeeee" stroke="none" font-family="Arial" font-size="24px" font-style="normal" font-weight="normal" text-decoration="none" x="800" y="30">UNREGISTERED</text><text fill="#eeeeee" stroke="none" font-family="Arial" font-size="24px" font-style="normal" font-weight="normal" text-decoration="none" x="800" y="60">UNREGISTERED</text><text fill="#eeeeee" stroke="none" font-family="Arial" font-size="24px" font-style="normal" font-weight="normal" text-decoration="none" x="800" y="90">UNREGISTERED</text><text fill="#eeeeee" stroke="none" font-family="Arial" font-size="24px" font-style="normal" font-weight="normal" text-decoration="none" x="800" y="120">UNREGISTERED</text><text fill="#eeeeee" stroke="none" font-family="Arial" font-size="24px" font-style="normal" font-weight="normal" text-decoration="none" x="800" y="150">UNREGISTERED</text><text fill="#eeeeee" stroke="none" font-family="Arial" font-size="24px" font-style="normal" font-weight="normal" text-decoration="none" x="800" y="180">UNREGISTERED</text><text fill="#eeeeee" stroke="none" font-family="Arial" font-size="24px" font-style="normal" font-weight="normal" text-decoration="none" x="800" y="210">UNREGISTERED</text><text fill="#eeeeee" stroke="none" font-family="Arial" font-size="24px" font-style="normal" font-weight="normal" text-decoration="none" x="800" y="240">UNREGISTERED</text><text fill="#eeeeee" stroke="none" font-family="Arial" font-size="24px" font-style="normal" font-weight="normal" text-decoration="none" x="800" y="270">UNREGISTERED</text><text fill="#eeeeee" stroke="none" font-family="Arial" font-size="24px" font-style="normal" font-weight="normal" text-decoration="none" x="800" y="300">UNREGISTERED</text><text fill="#eeeeee" stroke="none" font-family="Arial" font-size="24px" font-style="normal" font-weight="normal" text-decoration="none" x="800" y="330">UNREGISTERED</text><text fill="#eeeeee" stroke="none" font-family="Arial" font-size="24px" font-style="normal" font-weight="normal" text-decoration="none" x="800" y="360">UNREGISTERED</text><text fill="#eeeeee" stroke="none" font-family="Arial" font-size="24px" font-style="normal" font-weight="normal" text-decoration="none" x="800" y="390">UNREGISTERED</text><text fill="#eeeeee" stroke="none" font-family="Arial" font-size="24px" font-style="normal" font-weight="normal" text-decoration="none" x="800" y="420">UNREGISTERED</text><text fill="#eeeeee" stroke="none" font-family="Arial" font-size="24px" font-style="normal" font-weight="normal" text-decoration="none" x="800" y="450">UNREGISTERED</text><text fill="#eeeeee" stroke="none" font-family="Arial" font-size="24px" font-style="normal" font-weight="normal" text-decoration="none" x="1000" y="0">UNREGISTERED</text><text fill="#eeeeee" stroke="none" font-family="Arial" font-size="24px" font-style="normal" font-weight="normal" text-decoration="none" x="1000" y="30">UNREGISTERED</text><text fill="#eeeeee" stroke="none" font-family="Arial" font-size="24px" font-style="normal" font-weight="normal" text-decoration="none" x="1000" y="60">UNREGISTERED</text><text fill="#eeeeee" stroke="none" font-family="Arial" font-size="24px" font-style="normal" font-weight="normal" text-decoration="none" x="1000" y="90">UNREGISTERED</text><text fill="#eeeeee" stroke="none" font-family="Arial" font-size="24px" font-style="normal" font-weight="normal" text-decoration="none" x="1000" y="120">UNREGISTERED</text><text fill="#eeeeee" stroke="none" font-family="Arial" font-size="24px" font-style="normal" font-weight="normal" text-decoration="none" x="1000" y="150">UNREGISTERED</text><text fill="#eeeeee" stroke="none" font-family="Arial" font-size="24px" font-style="normal" font-weight="normal" text-decoration="none" x="1000" y="180">UNREGISTERED</text><text fill="#eeeeee" stroke="none" font-family="Arial" font-size="24px" font-style="normal" font-weight="normal" text-decoration="none" x="1000" y="210">UNREGISTERED</text><text fill="#eeeeee" stroke="none" font-family="Arial" font-size="24px" font-style="normal" font-weight="normal" text-decoration="none" x="1000" y="240">UNREGISTERED</text><text fill="#eeeeee" stroke="none" font-family="Arial" font-size="24px" font-style="normal" font-weight="normal" text-decoration="none" x="1000" y="270">UNREGISTERED</text><text fill="#eeeeee" stroke="none" font-family="Arial" font-size="24px" font-style="normal" font-weight="normal" text-decoration="none" x="1000" y="300">UNREGISTERED</text><text fill="#eeeeee" stroke="none" font-family="Arial" font-size="24px" font-style="normal" font-weight="normal" text-decoration="none" x="1000" y="330">UNREGISTERED</text><text fill="#eeeeee" stroke="none" font-family="Arial" font-size="24px" font-style="normal" font-weight="normal" text-decoration="none" x="1000" y="360">UNREGISTERED</text><text fill="#eeeeee" stroke="none" font-family="Arial" font-size="24px" font-style="normal" font-weight="normal" text-decoration="none" x="1000" y="390">UNREGISTERED</text><text fill="#eeeeee" stroke="none" font-family="Arial" font-size="24px" font-style="normal" font-weight="normal" text-decoration="none" x="1000" y="420">UNREGISTERED</text><text fill="#eeeeee" stroke="none" font-family="Arial" font-size="24px" font-style="normal" font-weight="normal" text-decoration="none" x="1000" y="450">UNREGISTERED</text><text fill="#eeeeee" stroke="none" font-family="Arial" font-size="24px" font-style="normal" font-weight="normal" text-decoration="none" x="1200" y="0">UNREGISTERED</text><text fill="#eeeeee" stroke="none" font-family="Arial" font-size="24px" font-style="normal" font-weight="normal" text-decoration="none" x="1200" y="30">UNREGISTERED</text><text fill="#eeeeee" stroke="none" font-family="Arial" font-size="24px" font-style="normal" font-weight="normal" text-decoration="none" x="1200" y="60">UNREGISTERED</text><text fill="#eeeeee" stroke="none" font-family="Arial" font-size="24px" font-style="normal" font-weight="normal" text-decoration="none" x="1200" y="90">UNREGISTERED</text><text fill="#eeeeee" stroke="none" font-family="Arial" font-size="24px" font-style="normal" font-weight="normal" text-decoration="none" x="1200" y="120">UNREGISTERED</text><text fill="#eeeeee" stroke="none" font-family="Arial" font-size="24px" font-style="normal" font-weight="normal" text-decoration="none" x="1200" y="150">UNREGISTERED</text><text fill="#eeeeee" stroke="none" font-family="Arial" font-size="24px" font-style="normal" font-weight="normal" text-decoration="none" x="1200" y="180">UNREGISTERED</text><text fill="#eeeeee" stroke="none" font-family="Arial" font-size="24px" font-style="normal" font-weight="normal" text-decoration="none" x="1200" y="210">UNREGISTERED</text><text fill="#eeeeee" stroke="none" font-family="Arial" font-size="24px" font-style="normal" font-weight="normal" text-decoration="none" x="1200" y="240">UNREGISTERED</text><text fill="#eeeeee" stroke="none" font-family="Arial" font-size="24px" font-style="normal" font-weight="normal" text-decoration="none" x="1200" y="270">UNREGISTERED</text><text fill="#eeeeee" stroke="none" font-family="Arial" font-size="24px" font-style="normal" font-weight="normal" text-decoration="none" x="1200" y="300">UNREGISTERED</text><text fill="#eeeeee" stroke="none" font-family="Arial" font-size="24px" font-style="normal" font-weight="normal" text-decoration="none" x="1200" y="330">UNREGISTERED</text><text fill="#eeeeee" stroke="none" font-family="Arial" font-size="24px" font-style="normal" font-weight="normal" text-decoration="none" x="1200" y="360">UNREGISTERED</text><text fill="#eeeeee" stroke="none" font-family="Arial" font-size="24px" font-style="normal" font-weight="normal" text-decoration="none" x="1200" y="390">UNREGISTERED</text><text fill="#eeeeee" stroke="none" font-family="Arial" font-size="24px" font-style="normal" font-weight="normal" text-decoration="none" x="1200" y="420">UNREGISTERED</text><text fill="#eeeeee" stroke="none" font-family="Arial" font-size="24px" font-style="normal" font-weight="normal" text-decoration="none" x="1200" y="450">UNREGISTERED</text><text fill="#eeeeee" stroke="none" font-family="Arial" font-size="24px" font-style="normal" font-weight="normal" text-decoration="none" x="1400" y="0">UNREGISTERED</text><text fill="#eeeeee" stroke="none" font-family="Arial" font-size="24px" font-style="normal" font-weight="normal" text-decoration="none" x="1400" y="30">UNREGISTERED</text><text fill="#eeeeee" stroke="none" font-family="Arial" font-size="24px" font-style="normal" font-weight="normal" text-decoration="none" x="1400" y="60">UNREGISTERED</text><text fill="#eeeeee" stroke="none" font-family="Arial" font-size="24px" font-style="normal" font-weight="normal" text-decoration="none" x="1400" y="90">UNREGISTERED</text><text fill="#eeeeee" stroke="none" font-family="Arial" font-size="24px" font-style="normal" font-weight="normal" text-decoration="none" x="1400" y="120">UNREGISTERED</text><text fill="#eeeeee" stroke="none" font-family="Arial" font-size="24px" font-style="normal" font-weight="normal" text-decoration="none" x="1400" y="150">UNREGISTERED</text><text fill="#eeeeee" stroke="none" font-family="Arial" font-size="24px" font-style="normal" font-weight="normal" text-decoration="none" x="1400" y="180">UNREGISTERED</text><text fill="#eeeeee" stroke="none" font-family="Arial" font-size="24px" font-style="normal" font-weight="normal" text-decoration="none" x="1400" y="210">UNREGISTERED</text><text fill="#eeeeee" stroke="none" font-family="Arial" font-size="24px" font-style="normal" font-weight="normal" text-decoration="none" x="1400" y="240">UNREGISTERED</text><text fill="#eeeeee" stroke="none" font-family="Arial" font-size="24px" font-style="normal" font-weight="normal" text-decoration="none" x="1400" y="270">UNREGISTERED</text><text fill="#eeeeee" stroke="none" font-family="Arial" font-size="24px" font-style="normal" font-weight="normal" text-decoration="none" x="1400" y="300">UNREGISTERED</text><text fill="#eeeeee" stroke="none" font-family="Arial" font-size="24px" font-style="normal" font-weight="normal" text-decoration="none" x="1400" y="330">UNREGISTERED</text><text fill="#eeeeee" stroke="none" font-family="Arial" font-size="24px" font-style="normal" font-weight="normal" text-decoration="none" x="1400" y="360">UNREGISTERED</text><text fill="#eeeeee" stroke="none" font-family="Arial" font-size="24px" font-style="normal" font-weight="normal" text-decoration="none" x="1400" y="390">UNREGISTERED</text><text fill="#eeeeee" stroke="none" font-family="Arial" font-size="24px" font-style="normal" font-weight="normal" text-decoration="none" x="1400" y="420">UNREGISTERED</text><text fill="#eeeeee" stroke="none" font-family="Arial" font-size="24px" font-style="normal" font-weight="normal" text-decoration="none" x="1400" y="450">UNREGISTERED</text><g transform="translate(-150,-30) scale(1,1)"><path fill="none" stroke="#000000" d="M 920 256 L 1168 256 L 1168 456 L 920 456 L 920 256" stroke-miterlimit="10"/></g><g transform="translate(-150,-30) scale(1,1)"><path fill="#ffffff" stroke="none" d="M 920 256 L 920 278 L 936 278 L 947 267 L 947 256 L 920 256"/></g><g transform="translate(-150,-30) scale(1,1)"><path fill="none" stroke="#000000" d="M 920 256 L 920 278 L 936 278 L 947 267 L 947 256 L 920 256 L 920 256" stroke-miterlimit="10"/></g><g transform="translate(-150,-30) scale(1,1)"><g><path fill="none" stroke="none"/><text fill="#000000" stroke="none" font-family="Arial" font-size="13px" font-style="normal" font-weight="normal" text-decoration="none" x="931" y="267"></text></g></g><g transform="translate(-150,-30) scale(1,1)"><g><path fill="none" stroke="none"/><text fill="#000000" stroke="none" font-family="Arial" font-size="13px" font-style="normal" font-weight="bold" text-decoration="none" x="925" y="267"></text></g></g><g transform="translate(-150,-30) scale(1,1)"><path fill="none" stroke="#000000" d="M 1256 256 L 1504 256 L 1504 456 L 1256 456 L 1256 256" stroke-miterlimit="10"/></g><g transform="translate(-150,-30) scale(1,1)"><path fill="#ffffff" stroke="none" d="M 1256 256 L 1256 278 L 1272 278 L 1283 267 L 1283 256 L 1256 256"/></g><g transform="translate(-150,-30) scale(1,1)"><path fill="none" stroke="#000000" d="M 1256 256 L 1256 278 L 1272 278 L 1283 267 L 1283 256 L 1256 256 L 1256 256" stroke-miterlimit="10"/></g><g transform="translate(-150,-30) scale(1,1)"><g><path fill="none" stroke="none"/><text fill="#000000" stroke="none" font-family="Arial" font-size="13px" font-style="normal" font-weight="normal" text-decoration="none" x="1267" y="267"></text></g></g><g transform="translate(-150,-30) scale(1,1)"><g><path fill="none" stroke="none"/><text fill="#000000" stroke="none" font-family="Arial" font-size="13px" font-style="normal" font-weight="bold" text-decoration="none" x="1261" y="267"></text></g></g><g transform="translate(-150,-30) scale(1,1)"><rect fill="#C0C0C0" stroke="none" x="167" y="47" width="71.736328125" height="39" opacity="0.2"/></g><g transform="translate(-150,-30) scale(1,1)"><rect fill="#ffffff" stroke="none" x="160" y="40" width="71.736328125" height="39"/></g><g transform="translate(-150,-30) scale(1,1)"><path fill="none" stroke="#000000" d="M 160 40 L 231.736328125 40 L 231.736328125 79 L 160 79 L 160 40 Z Z" stroke-miterlimit="10"/></g><g transform="translate(-150,-30) scale(1,1)"><g><path fill="none" stroke="none"/><text fill="#000000" stroke="none" font-family="Arial" font-size="13px" font-style="normal" font-weight="bold" text-decoration="none" x="181.41455078125" y="57.5">User</text></g></g><g transform="translate(-150,-30) scale(1,1)"><path fill="none" stroke="#000000" d="M 196.5 80 L 196.5 440" stroke-miterlimit="10" stroke-dasharray="3"/></g><g transform="translate(-150,-30) scale(1,1)"><rect fill="#C0C0C0" stroke="none" x="567" y="47" width="76.07177734375" height="39" opacity="0.2"/></g><g transform="translate(-150,-30) scale(1,1)"><rect fill="#ffffff" stroke="none" x="560" y="40" width="76.07177734375" height="39"/></g><g transform="translate(-150,-30) scale(1,1)"><path fill="none" stroke="#000000" d="M 560 40 L 636.07177734375 40 L 636.07177734375 79 L 560 79 L 560 40 Z Z" stroke-miterlimit="10"/></g><g transform="translate(-150,-30) scale(1,1)"><g><path fill="none" stroke="none"/><text fill="#000000" stroke="none" font-family="Arial" font-size="13px" font-style="normal" font-weight="bold" text-decoration="none" x="569.5" y="57.5">Producer</text></g></g><g transform="translate(-150,-30) scale(1,1)"><path fill="none" stroke="#000000" d="M 599.5 80 L 599.5 440" stroke-miterlimit="10" stroke-dasharray="3"/></g><g transform="translate(-150,-30) scale(1,1)"><rect fill="#C0C0C0" stroke="none" x="1087" y="47" width="83.2890625" height="39" opacity="0.2"/></g><g transform="translate(-150,-30) scale(1,1)"><rect fill="#ffffff" stroke="none" x="1080" y="40" width="83.2890625" height="39"/></g><g transform="translate(-150,-30) scale(1,1)"><path fill="none" stroke="#000000" d="M 1080 40 L 1163.2890625 40 L 1163.2890625 79 L 1080 79 L 1080 40 Z Z" stroke-miterlimit="10"/></g><g transform="translate(-150,-30) scale(1,1)"><g><path fill="none" stroke="none"/><text fill="#000000" stroke="none" font-family="Arial" font-size="13px" font-style="normal" font-weight="bold" text-decoration="none" x="1089.5" y="57.5">Consumer</text></g></g><g transform="translate(-150,-30) scale(1,1)"><path fill="none" stroke="#000000" d="M 1122.5 80 L 1122.5 446" stroke-miterlimit="10" stroke-dasharray="3"/></g><g transform="translate(-150,-30) scale(1,1)"><rect fill="#C0C0C0" stroke="none" x="367" y="47" width="73.90087890625" height="39" opacity="0.2"/></g><g transform="translate(-150,-30) scale(1,1)"><rect fill="#ffffff" stroke="none" x="360" y="40" width="73.90087890625" height="39"/></g><g transform="translate(-150,-30) scale(1,1)"><path fill="none" stroke="#000000" d="M 360 40 L 433.90087890625 40 L 433.90087890625 79 L 360 79 L 360 40 Z Z" stroke-miterlimit="10"/></g><g transform="translate(-150,-30) scale(1,1)"><g><path fill="none" stroke="none"/><text fill="#000000" stroke="none" font-family="Arial" font-size="13px" font-style="normal" font-weight="bold" text-decoration="none" x="369.5" y="57.5">Postman</text></g></g><g transform="translate(-150,-30) scale(1,1)"><path fill="none" stroke="#000000" d="M 397.5 80 L 397.5 440" stroke-miterlimit="10" stroke-dasharray="3"/></g><g transform="translate(-150,-30) scale(1,1)"><rect fill="#C0C0C0" stroke="none" x="1567" y="47" width="83.2890625" height="39" opacity="0.2"/></g><g transform="translate(-150,-30) scale(1,1)"><rect fill="#ffffff" stroke="none" x="1560" y="40" width="83.2890625" height="39"/></g><g transform="translate(-150,-30) scale(1,1)"><path fill="none" stroke="#000000" d="M 1560 40 L 1643.2890625 40 L 1643.2890625 79 L 1560 79 L 1560 40 Z Z" stroke-miterlimit="10"/></g><g transform="translate(-150,-30) scale(1,1)"><g><path fill="none" stroke="none"/><text fill="#000000" stroke="none" font-family="Arial" font-size="13px" font-style="normal" font-weight="bold" text-decoration="none" x="1570.95361328125" y="57.5">RabbitMQ</text></g></g><g transform="translate(-150,-30) scale(1,1)"><path fill="none" stroke="#000000" d="M 1602.5 80 L 1602.5 440" stroke-miterlimit="10" stroke-dasharray="3"/></g><g transform="translate(-150,-30) scale(1,1)"><rect fill="#C0C0C0" stroke="none" x="719" y="47" width="135.3271484375" height="39" opacity="0.2"/></g><g transform="translate(-150,-30) scale(1,1)"><rect fill="#ffffff" stroke="none" x="712" y="40" width="135.3271484375" height="39"/></g><g transform="translate(-150,-30) scale(1,1)"><path fill="none" stroke="#000000" d="M 712 40 L 847.3271484375 40 L 847.3271484375 79 L 712 79 L 712 40 Z Z" stroke-miterlimit="10"/></g><g transform="translate(-150,-30) scale(1,1)"><g><path fill="none" stroke="none"/><text fill="#000000" stroke="none" font-family="Arial" font-size="13px" font-style="normal" font-weight="bold" text-decoration="none" x="721.5" y="57.5">DataBaseProducer</text></g></g><g transform="translate(-150,-30) scale(1,1)"><path fill="none" stroke="#000000" d="M 780.5 80 L 780.5 440" stroke-miterlimit="10" stroke-dasharray="3"/></g><g transform="translate(-150,-30) scale(1,1)"><path fill="#ffffff" stroke="none" d="M 632 456 L 757 456 L 767 466 L 767 495 L 632 495 L 632 456"/></g><g transform="translate(-150,-30) scale(1,1)"><path fill="none" stroke="#000000" d="M 632 456 L 757 456 L 767 466 L 767 495 L 632 495 L 632 456 L 632 456" stroke-miterlimit="10"/></g><g transform="translate(-150,-30) scale(1,1)"><path fill="none" stroke="#000000" d="M 757 456 L 757 466 L 767 466 L 757 456" stroke-miterlimit="10"/></g><g transform="translate(-150,-30) scale(1,1)"><g><path fill="none" stroke="none"/><text fill="#000000" stroke="none" font-family="Arial" font-size="13px" font-style="normal" font-weight="normal" text-decoration="none" x="637" y="470">action: puede ser</text><text fill="#000000" stroke="none" font-family="Arial" font-size="13px" font-style="normal" font-weight="normal" text-decoration="none" x="637" y="483">GET, PUT, DELETE</text></g></g><g transform="translate(-150,-30) scale(1,1)"><g><path fill="none" stroke="none"/><text fill="#000000" stroke="none" font-family="Arial" font-size="13px" font-style="normal" font-weight="normal" text-decoration="none" x="949" y="270">if(proccessMessage.equals("ok"))</text></g></g><g transform="translate(-150,-30) scale(1,1)"><g><path fill="none" stroke="none"/><text fill="#000000" stroke="none" font-family="Arial" font-size="13px" font-style="normal" font-weight="normal" text-decoration="none" x="957" y="374">else</text></g></g><g transform="translate(-150,-30) scale(1,1)"><rect fill="#C0C0C0" stroke="none" x="879" y="47" width="142.54443359375" height="39" opacity="0.2"/></g><g transform="translate(-150,-30) scale(1,1)"><rect fill="#ffffff" stroke="none" x="872" y="40" width="142.54443359375" height="39"/></g><g transform="translate(-150,-30) scale(1,1)"><path fill="none" stroke="#000000" d="M 872 40 L 1014.54443359375 40 L 1014.54443359375 79 L 872 79 L 872 40 Z Z" stroke-miterlimit="10"/></g><g transform="translate(-150,-30) scale(1,1)"><g><path fill="none" stroke="none"/><text fill="#000000" stroke="none" font-family="Arial" font-size="13px" font-style="normal" font-weight="bold" text-decoration="none" x="881.5" y="57.5">DataBaseConsumer</text></g></g><g transform="translate(-150,-30) scale(1,1)"><path fill="none" stroke="#000000" d="M 944.5 80 L 944.5 440" stroke-miterlimit="10" stroke-dasharray="3"/></g><g transform="translate(-150,-30) scale(1,1)"><path fill="none" stroke="#000000" d="M 896 352 L 1184 353" stroke-miterlimit="10" stroke-dasharray="6,4"/></g><g transform="translate(-150,-30) scale(1,1)"><rect fill="#C0C0C0" stroke="none" x="1231" y="47" width="110.01904296875" height="39" opacity="0.2"/></g><g transform="translate(-150,-30) scale(1,1)"><rect fill="#ffffff" stroke="none" x="1224" y="40" width="110.01904296875" height="39"/></g><g transform="translate(-150,-30) scale(1,1)"><path fill="none" stroke="#000000" d="M 1224 40 L 1334.01904296875 40 L 1334.01904296875 79 L 1224 79 L 1224 40 Z Z" stroke-miterlimit="10"/></g><g transform="translate(-150,-30) scale(1,1)"><g><path fill="none" stroke="none"/><text fill="#000000" stroke="none" font-family="Arial" font-size="13px" font-style="normal" font-weight="bold" text-decoration="none" x="1233.5" y="57.5">ConsumerCSV</text></g></g><g transform="translate(-150,-30) scale(1,1)"><path fill="none" stroke="#000000" d="M 1280.5 80 L 1280.5 440" stroke-miterlimit="10" stroke-dasharray="3"/></g><g transform="translate(-150,-30) scale(1,1)"><rect fill="#C0C0C0" stroke="none" x="1367" y="47" width="171.69287109375" height="39" opacity="0.2"/></g><g transform="translate(-150,-30) scale(1,1)"><rect fill="#ffffff" stroke="none" x="1360" y="40" width="171.69287109375" height="39"/></g><g transform="translate(-150,-30) scale(1,1)"><path fill="none" stroke="#000000" d="M 1360 40 L 1531.69287109375 40 L 1531.69287109375 79 L 1360 79 L 1360 40 Z Z" stroke-miterlimit="10"/></g><g transform="translate(-150,-30) scale(1,1)"><g><path fill="none" stroke="none"/><text fill="#000000" stroke="none" font-family="Arial" font-size="13px" font-style="normal" font-weight="bold" text-decoration="none" x="1369.5" y="57.5">actionsProductsCSV.csv</text></g></g><g transform="translate(-150,-30) scale(1,1)"><path fill="none" stroke="#000000" d="M 1446.5 80 L 1446.5 446" stroke-miterlimit="10" stroke-dasharray="3"/></g><g transform="translate(-150,-30) scale(1,1)"><g><path fill="none" stroke="none"/><text fill="#000000" stroke="none" font-family="Arial" font-size="13px" font-style="normal" font-weight="normal" text-decoration="none" x="1293" y="270">if(proccessMessage.equals("ok"))</text></g></g><g transform="translate(-150,-30) scale(1,1)"><path fill="none" stroke="#000000" d="M 1240 344 L 1522 346" stroke-miterlimit="10" stroke-dasharray="6,4"/></g><g transform="translate(-150,-30) scale(1,1)"><g><path fill="none" stroke="none"/><text fill="#000000" stroke="none" font-family="Arial" font-size="13px" font-style="normal" font-weight="normal" text-decoration="none" x="1301" y="366">else</text></g></g><g transform="translate(-150,-30) scale(1,1)"><path fill="none" stroke="#000000" d="M 196 106 L 390 106" stroke-miterlimit="10"/></g><g transform="translate(-150,-30) scale(1,1)"><path fill="#000000" stroke="none" d="M 379.83732514237585 110.20951775601598 L 390 106 L 379.83732514237585 101.79048224398402"/></g><g transform="translate(-150,-30) scale(1,1)"><path fill="none" stroke="#000000" d="M 379.83732514237585 110.20951775601598 L 390 106 L 379.83732514237585 101.79048224398402 L 379.83732514237585 110.20951775601598" stroke-miterlimit="10"/></g><g transform="translate(-150,-30) scale(1,1)"><g><path fill="none" stroke="none"/><text fill="#000000" stroke="none" font-family="Arial" font-size="13px" font-style="normal" font-weight="normal" text-decoration="none" x="205.5" y="100.5">1 : peticion GET,PUT,DELETE</text></g></g><g transform="translate(-150,-30) scale(1,1)"><rect fill="#ffffff" stroke="none" x="390" y="106" width="13" height="142"/></g><g transform="translate(-150,-30) scale(1,1)"><path fill="none" stroke="#000000" d="M 390 106 L 403 106 L 403 248 L 390 248 L 390 106 Z Z" stroke-miterlimit="10"/></g><g transform="translate(-150,-30) scale(1,1)"><path fill="none" stroke="#000000" d="M 403 120 L 592 120" stroke-miterlimit="10"/></g><g transform="translate(-150,-30) scale(1,1)"><path fill="#000000" stroke="none" d="M 581.8373251423759 124.20951775601598 L 592 120 L 581.8373251423758 115.79048224398402"/></g><g transform="translate(-150,-30) scale(1,1)"><path fill="none" stroke="#000000" d="M 581.8373251423759 124.20951775601598 L 592 120 L 581.8373251423758 115.79048224398402 L 581.8373251423759 124.20951775601598" stroke-miterlimit="10"/></g><g transform="translate(-150,-30) scale(1,1)"><g><path fill="none" stroke="none"/><text fill="#000000" stroke="none" font-family="Arial" font-size="13px" font-style="normal" font-weight="normal" text-decoration="none" x="447.5" y="114.5">2 : sendMessage</text></g></g><g transform="translate(-150,-30) scale(1,1)"><rect fill="#ffffff" stroke="none" x="592" y="120" width="13" height="128"/></g><g transform="translate(-150,-30) scale(1,1)"><path fill="none" stroke="#000000" d="M 592 120 L 605 120 L 605 248 L 592 248 L 592 120 Z Z" stroke-miterlimit="10"/></g><g transform="translate(-150,-30) scale(1,1)"><path fill="none" stroke="#000000" d="M 605 136 L 773 136" stroke-miterlimit="10"/></g><g transform="translate(-150,-30) scale(1,1)"><path fill="#000000" stroke="none" d="M 762.8373251423759 140.209517756016 L 773 136 L 762.8373251423758 131.790482243984"/></g><g transform="translate(-150,-30) scale(1,1)"><path fill="none" stroke="#000000" d="M 762.8373251423759 140.209517756016 L 773 136 L 762.8373251423758 131.790482243984 L 762.8373251423759 140.209517756016" stroke-miterlimit="10"/></g><g transform="translate(-150,-30) scale(1,1)"><g><path fill="none" stroke="none"/><text fill="#000000" stroke="none" font-family="Arial" font-size="13px" font-style="normal" font-weight="normal" text-decoration="none" x="662.83447265625" y="130.5">3 : action</text></g></g><g transform="translate(-150,-30) scale(1,1)"><rect fill="#ffffff" stroke="none" x="773" y="136" width="13" height="88"/></g><g transform="translate(-150,-30) scale(1,1)"><path fill="none" stroke="#000000" d="M 773 136 L 786 136 L 786 224 L 773 224 L 773 136 Z Z" stroke-miterlimit="10"/></g><g transform="translate(-150,-30) scale(1,1)"><path fill="none" stroke="#000000" d="M 786 144 L 1595 144" stroke-miterlimit="10"/></g><g transform="translate(-150,-30) scale(1,1)"><path fill="#000000" stroke="none" d="M 1584.837325142376 148.209517756016 L 1595 144 L 1584.837325142376 139.790482243984"/></g><g transform="translate(-150,-30) scale(1,1)"><path fill="none" stroke="#000000" d="M 1584.837325142376 148.209517756016 L 1595 144 L 1584.837325142376 139.790482243984 L 1584.837325142376 148.209517756016" stroke-miterlimit="10"/></g><g transform="translate(-150,-30) scale(1,1)"><g><path fill="none" stroke="none"/><text fill="#000000" stroke="none" font-family="Arial" font-size="13px" font-style="normal" font-weight="normal" text-decoration="none" x="1078.5" y="137.5">4 : add queueName</text></g></g><g transform="translate(-150,-30) scale(1,1)"><rect fill="#ffffff" stroke="none" x="1595" y="144" width="13" height="56"/></g><g transform="translate(-150,-30) scale(1,1)"><path fill="none" stroke="#000000" d="M 1595 144 L 1608 144 L 1608 200 L 1595 200 L 1595 144 Z Z" stroke-miterlimit="10"/></g><g transform="translate(-150,-30) scale(1,1)"><path fill="none" stroke="#000000" d="M 1595 168 L 1280 168" stroke-miterlimit="10" stroke-dasharray="3"/></g><g transform="translate(-150,-30) scale(1,1)"><path fill="none" stroke="#000000" d="M 1290.162674857624 163.790482243984 L 1280 168 L 1290.162674857624 172.209517756016" stroke-miterlimit="10"/></g><g transform="translate(-150,-30) scale(1,1)"><g><path fill="none" stroke="none"/><text fill="#000000" stroke="none" font-family="Arial" font-size="13px" font-style="normal" font-weight="normal" text-decoration="none" x="1426.5" y="182.5">5 : </text></g></g><g transform="translate(-150,-30) scale(1,1)"><path fill="none" stroke="#000000" d="M 1595 168 L 1122 168" stroke-miterlimit="10" stroke-dasharray="3"/></g><g transform="translate(-150,-30) scale(1,1)"><path fill="none" stroke="#000000" d="M 1132.162674857624 163.790482243984 L 1122 168 L 1132.162674857624 172.209517756016" stroke-miterlimit="10"/></g><g transform="translate(-150,-30) scale(1,1)"><g><path fill="none" stroke="none"/><text fill="#000000" stroke="none" font-family="Arial" font-size="13px" font-style="normal" font-weight="normal" text-decoration="none" x="1242.5" y="185.5">6 : receiveMessage</text></g></g><g transform="translate(-150,-30) scale(1,1)"><path fill="none" stroke="#000000" d="M 1122 208 L 950 208" stroke-miterlimit="10"/></g><g transform="translate(-150,-30) scale(1,1)"><path fill="#000000" stroke="none" d="M 960.1626748576241 203.790482243984 L 950 208 L 960.1626748576241 212.209517756016"/></g><g transform="translate(-150,-30) scale(1,1)"><path fill="none" stroke="#000000" d="M 960.1626748576241 203.790482243984 L 950 208 L 960.1626748576241 212.209517756016 L 960.1626748576241 203.790482243984" stroke-miterlimit="10"/></g><g transform="translate(-150,-30) scale(1,1)"><g><path fill="none" stroke="none"/><text fill="#000000" stroke="none" font-family="Arial" font-size="13px" font-style="normal" font-weight="normal" text-decoration="none" x="973.5" y="222.5">7 : proccessMessage</text></g></g><g transform="translate(-150,-30) scale(1,1)"><rect fill="#ffffff" stroke="none" x="937" y="208" width="13" height="28"/></g><g transform="translate(-150,-30) scale(1,1)"><path fill="none" stroke="#000000" d="M 937 208 L 950 208 L 950 236 L 937 236 L 937 208 Z Z" stroke-miterlimit="10"/></g><g transform="translate(-150,-30) scale(1,1)"><path fill="none" stroke="#000000" d="M 1280 226 L 1439 226" stroke-miterlimit="10"/></g><g transform="translate(-150,-30) scale(1,1)"><path fill="#000000" stroke="none" d="M 1428.837325142376 230.209517756016 L 1439 226 L 1428.837325142376 221.790482243984"/></g><g transform="translate(-150,-30) scale(1,1)"><path fill="none" stroke="#000000" d="M 1428.837325142376 230.209517756016 L 1439 226 L 1428.837325142376 221.790482243984 L 1428.837325142376 230.209517756016" stroke-miterlimit="10"/></g><g transform="translate(-150,-30) scale(1,1)"><g><path fill="none" stroke="none"/><text fill="#000000" stroke="none" font-family="Arial" font-size="13px" font-style="normal" font-weight="normal" text-decoration="none" x="1291.5" y="216.5">8 : processMessage</text></g></g><g transform="translate(-150,-30) scale(1,1)"><rect fill="#ffffff" stroke="none" x="1439" y="226" width="13" height="28"/></g><g transform="translate(-150,-30) scale(1,1)"><path fill="none" stroke="#000000" d="M 1439 226 L 1452 226 L 1452 254 L 1439 254 L 1439 226 Z Z" stroke-miterlimit="10"/></g><g transform="translate(-150,-30) scale(1,1)"><path fill="none" stroke="#000000" d="M 592 232 L 403 232" stroke-miterlimit="10" stroke-dasharray="3"/></g><g transform="translate(-150,-30) scale(1,1)"><path fill="none" stroke="#000000" d="M 413.16267485762415 227.790482243984 L 403 232 L 413.16267485762415 236.209517756016" stroke-miterlimit="10"/></g><g transform="translate(-150,-30) scale(1,1)"><g><path fill="none" stroke="none"/><text fill="#000000" stroke="none" font-family="Arial" font-size="13px" font-style="normal" font-weight="normal" text-decoration="none" x="436.5" y="246.5">9 : responseRequest</text></g></g><g transform="translate(-150,-30) scale(1,1)"><path fill="none" stroke="#000000" d="M 1122 312 L 950 312" stroke-miterlimit="10"/></g><g transform="translate(-150,-30) scale(1,1)"><path fill="#000000" stroke="none" d="M 960.1626748576241 307.790482243984 L 950 312 L 960.1626748576241 316.209517756016"/></g><g transform="translate(-150,-30) scale(1,1)"><path fill="none" stroke="#000000" d="M 960.1626748576241 307.790482243984 L 950 312 L 960.1626748576241 316.209517756016 L 960.1626748576241 307.790482243984" stroke-miterlimit="10"/></g><g transform="translate(-150,-30) scale(1,1)"><g><path fill="none" stroke="none"/><text fill="#000000" stroke="none" font-family="Arial" font-size="13px" font-style="normal" font-weight="normal" text-decoration="none" x="984.5" y="326.5">10 : saveRequest</text></g></g><g transform="translate(-150,-30) scale(1,1)"><rect fill="#ffffff" stroke="none" x="937" y="312" width="13" height="28"/></g><g transform="translate(-150,-30) scale(1,1)"><path fill="none" stroke="#000000" d="M 937 312 L 950 312 L 950 340 L 937 340 L 937 312 Z Z" stroke-miterlimit="10"/></g><g transform="translate(-150,-30) scale(1,1)"><path fill="none" stroke="#000000" d="M 1280 313 L 1439 313" stroke-miterlimit="10"/></g><g transform="translate(-150,-30) scale(1,1)"><path fill="#000000" stroke="none" d="M 1428.837325142376 317.209517756016 L 1439 313 L 1428.837325142376 308.790482243984"/></g><g transform="translate(-150,-30) scale(1,1)"><path fill="none" stroke="#000000" d="M 1428.837325142376 317.209517756016 L 1439 313 L 1428.837325142376 308.790482243984 L 1428.837325142376 317.209517756016" stroke-miterlimit="10"/></g><g transform="translate(-150,-30) scale(1,1)"><g><path fill="none" stroke="none"/><text fill="#000000" stroke="none" font-family="Arial" font-size="13px" font-style="normal" font-weight="normal" text-decoration="none" x="1300.5" y="307.5">11 : saveInformation</text></g></g><g transform="translate(-150,-30) scale(1,1)"><rect fill="#ffffff" stroke="none" x="1439" y="313" width="13" height="28"/></g><g transform="translate(-150,-30) scale(1,1)"><path fill="none" stroke="#000000" d="M 1439 313 L 1452 313 L 1452 341 L 1439 341 L 1439 313 Z Z" stroke-miterlimit="10"/></g><g transform="translate(-150,-30) scale(1,1)"><path fill="none" stroke="#000000" d="M 1122 384 L 1152 384 L 1152 404 L 1128 404" stroke-miterlimit="10"/></g><g transform="translate(-150,-30) scale(1,1)"><path fill="#000000" stroke="none" d="M 1138.162674857624 399.790482243984 L 1128 404 L 1138.162674857624 408.209517756016"/></g><g transform="translate(-150,-30) scale(1,1)"><path fill="none" stroke="#000000" d="M 1138.162674857624 399.790482243984 L 1128 404 L 1138.162674857624 408.209517756016 L 1138.162674857624 399.790482243984" stroke-miterlimit="10"/></g><g transform="translate(-150,-30) scale(1,1)"><g><path fill="none" stroke="none"/><text fill="#000000" stroke="none" font-family="Arial" font-size="13px" font-style="normal" font-weight="normal" text-decoration="none" x="1112.5" y="397.5">12 : waitRequest</text></g></g><g transform="translate(-150,-30) scale(1,1)"><rect fill="#ffffff" stroke="none" x="1115" y="404" width="13" height="28"/></g><g transform="translate(-150,-30) scale(1,1)"><path fill="none" stroke="#000000" d="M 1115 404 L 1128 404 L 1128 432 L 1115 432 L 1115 404 Z Z" stroke-miterlimit="10"/></g><g transform="translate(-150,-30) scale(1,1)"><path fill="none" stroke="#000000" d="M 1446 384 L 1476 384 L 1476 404 L 1452 404" stroke-miterlimit="10"/></g><g transform="translate(-150,-30) scale(1,1)"><path fill="#000000" stroke="none" d="M 1462.162674857624 399.790482243984 L 1452 404 L 1462.162674857624 408.209517756016"/></g><g transform="translate(-150,-30) scale(1,1)"><path fill="none" stroke="#000000" d="M 1462.162674857624 399.790482243984 L 1452 404 L 1462.162674857624 408.209517756016 L 1462.162674857624 399.790482243984" stroke-miterlimit="10"/></g><g transform="translate(-150,-30) scale(1,1)"><g><path fill="none" stroke="none"/><text fill="#000000" stroke="none" font-family="Arial" font-size="13px" font-style="normal" font-weight="normal" text-decoration="none" x="1436.5" y="397.5">13 : waitRequest</text></g></g><g transform="translate(-150,-30) scale(1,1)"><rect fill="#ffffff" stroke="none" x="1439" y="404" width="13" height="28"/></g><g transform="translate(-150,-30) scale(1,1)"><path fill="none" stroke="#000000" d="M 1439 404 L 1452 404 L 1452 432 L 1439 432 L 1439 404 Z Z" stroke-miterlimit="10"/></g></g></svg>